<svg xmlns="http://www.w3.org/2000/svg" xmlns:xlink="http://www.w3.org/1999/xlink" width="500" zoomAndPan="magnify" viewBox="0 0 375 374.999991" height="500" preserveAspectRatio="xMidYMid meet" version="1.0"><defs><clipPath id="f580daf714"><path d="M 50.253906 48.164062 L 324.753906 48.164062 L 324.753906 186 L 50.253906 186 Z M 50.253906 48.164062 " clip-rule="nonzero"/></clipPath><clipPath id="4a59b94d9a"><path d="M 50.253906 189 L 324.753906 189 L 324.753906 327.160156 L 50.253906 327.160156 Z M 50.253906 189 " clip-rule="nonzero"/></clipPath></defs><g clip-path="url(#f580daf714)"><path fill="#f39200" d="M 207.375 144.121094 L 237.660156 57.632812 C 244.066406 60.152344 250.238281 63.144531 256.132812 66.558594 Z M 197.691406 48.539062 C 194.328125 48.289062 190.929688 48.164062 187.5 48.164062 C 184.070312 48.164062 180.671875 48.289062 177.304688 48.539062 L 187.5 139.605469 Z M 237.636719 57.621094 C 231.308594 55.136719 224.753906 53.105469 218.011719 51.574219 L 201.039062 141.628906 Z M 217.984375 51.566406 C 211.398438 50.070312 204.628906 49.050781 197.722656 48.539062 L 194.394531 140.117188 Z M 273.054688 78.136719 C 267.730469 73.878906 262.085938 70.011719 256.15625 66.574219 L 213.304688 147.554688 Z M 300.839844 108.09375 C 296.980469 102.445312 292.714844 97.097656 288.078125 92.097656 L 223.375 156.914062 Z M 323.191406 165.085938 C 322.167969 158.226562 320.640625 151.535156 318.648438 145.046875 L 232.21875 175.253906 Z M 324.699219 185.503906 C 324.699219 178.574219 324.183594 171.765625 323.195312 165.113281 L 233.230469 182.039062 Z M 318.636719 145.023438 C 316.605469 138.421875 314.089844 132.03125 311.132812 125.894531 L 230.214844 168.746094 Z M 311.121094 125.871094 C 308.136719 119.679688 304.699219 113.746094 300.855469 108.117188 L 227.25 162.59375 Z M 288.058594 92.074219 C 283.417969 87.074219 278.410156 82.417969 273.078125 78.152344 L 218.683594 151.855469 Z M 63.867188 125.894531 C 60.90625 132.03125 58.394531 138.421875 56.359375 145.023438 L 144.78125 168.746094 Z M 74.144531 108.117188 C 70.300781 113.746094 66.863281 119.679688 63.878906 125.867188 L 147.75 162.59375 Z M 56.355469 145.050781 C 54.359375 151.535156 52.832031 158.226562 51.808594 165.085938 L 142.78125 175.257812 Z M 86.921875 92.097656 C 82.285156 97.097656 78.019531 102.445312 74.160156 108.09375 L 151.625 156.914062 Z M 51.804688 165.113281 C 50.816406 171.765625 50.300781 178.574219 50.300781 185.503906 L 141.769531 182.039062 Z M 156.988281 51.574219 C 150.246094 53.105469 143.691406 55.136719 137.363281 57.621094 L 173.960938 141.628906 Z M 177.277344 48.539062 C 170.367188 49.046875 163.601562 50.070312 157.015625 51.566406 L 180.605469 140.113281 Z M 137.339844 57.632812 C 130.933594 60.152344 124.761719 63.144531 118.867188 66.558594 L 167.625 144.121094 Z M 118.84375 66.574219 C 112.914062 70.011719 107.269531 73.878906 101.945312 78.136719 L 161.695312 147.554688 Z M 101.921875 78.152344 C 96.589844 82.417969 91.582031 87.070312 86.941406 92.074219 L 156.316406 151.855469 Z M 101.921875 78.152344 " fill-opacity="1" fill-rule="nonzero"/></g><g clip-path="url(#4a59b94d9a)"><path fill="#009640" d="M 279.875 291.378906 L 50.300781 189.820312 L 315.125 240.332031 C 307.363281 259.972656 295.210938 277.394531 279.875 291.378906 Z M 324.699219 189.820312 L 50.300781 189.820312 L 319.199219 228.445312 C 322.777344 216.191406 324.699219 203.230469 324.699219 189.820312 Z M 268.460938 300.722656 L 50.300781 189.820312 L 204.273438 326.15625 C 228.09375 323.25 250.023438 314.234375 268.460938 300.722656 Z M 50.300781 189.820312 C 50.300781 265.03125 110.679688 326.121094 185.554688 327.160156 Z M 50.300781 189.820312 " fill-opacity="1" fill-rule="nonzero"/></g></svg>